<?xml version="1.0" encoding="UTF-8" standalone="no"?>
<!-- Created with Inkscape (http://www.inkscape.org/) -->

<svg
   width="119.43284mm"
   height="118.86417mm"
   viewBox="0 0 119.43284 118.86417"
   version="1.1"
   id="svg1"
   xml:space="preserve"
   inkscape:version="1.3.2 (091e20e, 2023-11-25)"
   sodipodi:docname="ytlogofavicon.svg"
   xmlns:inkscape="http://www.inkscape.org/namespaces/inkscape"
   xmlns:sodipodi="http://sodipodi.sourceforge.net/DTD/sodipodi-0.dtd"
   xmlns="http://www.w3.org/2000/svg"
   xmlns:svg="http://www.w3.org/2000/svg"><sodipodi:namedview
     id="namedview1"
     pagecolor="#505050"
     bordercolor="#eeeeee"
     borderopacity="1"
     inkscape:showpageshadow="0"
     inkscape:pageopacity="0"
     inkscape:pagecheckerboard="0"
     inkscape:deskcolor="#505050"
     inkscape:document-units="mm"
     inkscape:zoom="0.77653983"
     inkscape:cx="119.76205"
     inkscape:cy="182.86248"
     inkscape:window-width="1712"
     inkscape:window-height="1007"
     inkscape:window-x="10"
     inkscape:window-y="72"
     inkscape:window-maximized="0"
     inkscape:current-layer="g1"
     showgrid="false" /><defs
     id="defs1"><rect
       x="4157.9824"
       y="2.7481709"
       width="802.46588"
       height="555.13049"
       id="rect16" /><rect
       x="3326.6606"
       y="593.60486"
       width="794.22137"
       height="529.02289"
       id="rect15" /><rect
       x="2493.1899"
       y="0"
       width="794.78931"
       height="612.12384"
       id="rect13" /><rect
       x="1663.4222"
       y="546.05328"
       width="792.84607"
       height="575.20203"
       id="rect11" /><rect
       x="831.32166"
       y="0"
       width="794.22137"
       height="814.83264"
       id="rect2" /><rect
       x="3321.9446"
       y="556.39832"
       width="805.81824"
       height="759.22333"
       id="rect7" /><rect
       x="2488.7175"
       y="-8.2226353"
       width="794.85474"
       height="600.25238"
       id="rect6" /><rect
       x="1657.7698"
       y="564.91534"
       width="810.74292"
       height="638.91339"
       id="rect5" /><rect
       x="825.66553"
       y="-4.8855948"
       width="798.7948"
       height="593.59979"
       id="rect4" /><rect
       x="828.10834"
       y="-4.8855948"
       width="798.7948"
       height="466.57431"
       id="rect3" /><rect
       x="3324.3196"
       y="624.53522"
       width="807.97491"
       height="568.52307"
       id="rect32" /><rect
       x="2492.5396"
       y="0"
       width="795.37219"
       height="618.93396"
       id="rect28" /><rect
       x="1665.4556"
       y="546.57043"
       width="788.17041"
       height="574.29504"
       id="rect22" /><rect
       x="833.71796"
       y="3.9606552"
       width="788.17041"
       height="570.33435"
       id="rect14" /><rect
       x="843.61957"
       y="95.055725"
       width="11.881966"
       height="99.01638"
       id="rect1" /><inkscape:path-effect
       effect="fillet_chamfer"
       id="path-effect3"
       is_visible="true"
       lpeversion="1"
       nodesatellites_param="F,0,0,1,0,0,0,1 @ F,0,0,1,0,0,0,1 @ F,0,0,1,0,0,0,1 @ F,0,0,1,0,0,0,1 @ F,0,0,1,0,0,0,1 @ F,0,0,1,0,0,0,1 | F,0,0,1,0,0,0,1 @ F,0,0,1,0,4.5266079,0,1 @ F,0,1,1,0,4.5266079,0,1 @ F,0,0,1,0,5.3828154,0,1 @ F,0,0,1,0,0,0,1 @ F,0,0,1,0,0,0,1"
       radius="0"
       unit="px"
       method="auto"
       mode="F"
       chamfer_steps="1"
       flexible="false"
       use_knot_distance="true"
       apply_no_radius="true"
       apply_with_radius="true"
       only_selected="false"
       hide_knots="false" /><clipPath
       clipPathUnits="userSpaceOnUse"
       id="clipPath9"><rect
         style="fill:#000000;stroke-width:0.996334"
         id="rect10"
         width="281.61453"
         height="119.97482"
         x="208.36624"
         y="802.72101" /></clipPath></defs><g
     inkscape:label="Layer 1"
     inkscape:groupmode="layer"
     id="layer1"
     transform="translate(-41.731897,-81.494976)"><text
       xml:space="preserve"
       style="font-style:normal;font-variant:normal;font-weight:normal;font-stretch:normal;font-size:14.1111px;font-family:sans-serif;-inkscape-font-specification:sans-serif;fill:#000000;stroke:none;stroke-width:1.365;stroke-dasharray:none"
       x="-324.65521"
       y="0.65189195"
       id="text27"><tspan
         style="font-style:normal;font-variant:normal;font-weight:normal;font-stretch:normal;font-size:14.1111px;font-family:Inter;-inkscape-font-specification:Inter;stroke-width:1.365"
         x="-324.65521"
         y="0.65189195"
         id="tspan37"
         sodipodi:role="line" /></text><text
       xml:space="preserve"
       style="font-style:normal;font-variant:normal;font-weight:normal;font-stretch:normal;font-size:14.1111px;font-family:sans-serif;-inkscape-font-specification:sans-serif;fill:#000000;stroke:none;stroke-width:1.43038;stroke-dasharray:none"
       x="-102.46735"
       y="182.58531"
       id="text36"
       transform="scale(1.0478979,0.95429146)"><tspan
         sodipodi:role="line"
         style="font-size:14.1111px;stroke-width:1.43038"
         x="-102.46735"
         y="182.58531"
         id="tspan42" /></text><text
       xml:space="preserve"
       style="font-style:normal;font-variant:normal;font-weight:normal;font-stretch:normal;font-size:14.1111px;font-family:sans-serif;-inkscape-font-specification:sans-serif;fill:#000000;stroke:none;stroke-width:1.365;stroke-dasharray:none"
       x="122.82877"
       y="4.4375362"
       id="text43"><tspan
         sodipodi:role="line"
         style="stroke-width:1.365"
         x="122.82877"
         y="4.4375362"
         id="tspan49" /></text><text
       xml:space="preserve"
       transform="matrix(0.26458333,0,0,0.26458333,-551.79613,-13.23177)"
       id="text1"
       style="font-style:normal;font-variant:normal;font-weight:normal;font-stretch:normal;font-size:26.6667px;font-family:Inter;-inkscape-font-specification:Inter;white-space:pre;shape-inside:url(#rect1);display:inline;fill:none;stroke:#ff0000;stroke-width:5.15906" /><text
       xml:space="preserve"
       transform="matrix(0.26458333,0,0,0.26458333,-551.79613,-13.23177)"
       id="text3"
       style="font-style:normal;font-variant:normal;font-weight:normal;font-stretch:normal;font-size:60px;font-family:Inter;-inkscape-font-specification:Inter;white-space:pre;shape-inside:url(#rect3);display:inline;fill:#000000;stroke-width:5.15906" /><g
       id="g1"
       transform="translate(0.96669728,-2.7389756)"><path
         id="path1"
         style="fill:#ffffff;fill-opacity:1;stroke:none;stroke-width:0.3;stroke-dasharray:none"
         d="m 102.11211,112.76728 c -1.9382,0.02 -1.94273,0.11692 -0.12557,2.63808 0.88808,1.23215 1.97884,2.5843 2.42362,3.00447 0.60705,0.57346 0.9808,0.76377 1.49914,0.76377 0.7427,0 1.97545,-0.36229 1.97145,-0.57981 -0.005,-0.30812 -3.61205,-5.02624 -4.13876,-5.41362 -0.41477,-0.30506 -0.87048,-0.42089 -1.62988,-0.41289 z m -4.633822,0.30385 c -0.1926,-0.002 -0.426975,0.0107 -0.729155,0.03 -1.890054,0.12035 -1.951452,0.29646 -0.671277,1.93425 2.546245,3.25753 3.385063,4.22749 3.961514,4.57904 0.33617,0.20501 0.72417,0.3732 0.86196,0.37362 0.52569,0.002 1.90745,-0.67446 1.82315,-0.89193 -0.25419,-0.65546 -3.346915,-4.90389 -3.965133,-5.4467 -0.504157,-0.44265 -0.703261,-0.57321 -1.281059,-0.57826 z m -4.643128,0.80564 c -0.647548,0 -1.883608,0.44269 -1.812809,0.64906 0.14747,0.42996 3.604364,5.22947 4.185791,5.81153 0.36788,0.36828 0.845918,0.66972 1.062468,0.66972 0.520107,0 1.833996,-0.63297 1.833996,-0.88366 0,-0.21505 -3.407894,-4.77993 -4.244702,-5.68596 -0.298179,-0.32284 -0.732195,-0.56069 -1.024744,-0.56069 z m 13.69425,0.0656 c -0.047,-0.005 -0.0729,0.008 -0.0729,0.0403 0,0.17696 2.44984,3.81122 2.91559,4.32531 0.44902,0.49563 1.56631,0.63902 1.56631,0.20103 0,-0.37118 -1.30896,-2.26084 -2.14664,-3.09852 -0.58126,-0.58127 -1.93348,-1.43637 -2.2624,-1.46813 z m -18.242292,0.95446 c -0.411367,-0.0419 -0.755819,0.0591 -0.856279,0.32091 -0.06806,0.17723 -0.123507,0.76142 -0.123507,1.29812 0,0.88568 0.124746,1.14273 1.352373,2.78432 1.440735,1.92654 1.619008,2.35887 1.02371,2.4815 -0.25563,0.0527 -0.876781,-0.44441 -1.963188,-1.57096 -0.874127,-0.90641 -1.725798,-1.64796 -1.892908,-1.64796 -0.167108,0 -0.424491,-0.29834 -0.571541,-0.66249 -0.335599,-0.83104 -1.006365,-1.5701 -1.428853,-1.5751 -0.31929,-0.003 -2.862077,0.77907 -3.017387,0.92862 -0.04423,0.0426 1.272447,1.50046 2.925403,3.2396 2.103452,2.21314 3.139566,3.16208 3.453536,3.16208 0.391038,0 6.826482,-1.96859 7.014042,-2.1456 0.1322,-0.12476 -4.015859,-5.53664 -4.657597,-6.07664 -0.367839,-0.30952 -0.846439,-0.49449 -1.257804,-0.5364 z m 24.095682,2.59829 c -0.0513,0.0651 0.126,0.36371 0.5731,0.84233 0.32507,0.34799 0.6913,0.63252 0.81442,0.63252 0.32972,0 0.29938,-0.0476 -0.59067,-0.91674 -0.46581,-0.45487 -0.74557,-0.62318 -0.79685,-0.55811 z M 77.723938,117.845 c -0.103261,-0.013 -0.185373,-0.002 -0.244946,0.0351 -0.26299,0.16254 4.217994,4.28086 6.428548,5.90817 1.098387,0.80859 1.566313,0.95137 1.566313,0.47904 0,-0.0983 -1.306548,-1.38558 -2.903182,-2.86081 -2.362021,-2.18241 -4.123904,-3.47082 -4.846733,-3.56154 z m -0.478007,2.59261 c -0.05397,0.0134 -0.146262,0.11041 -0.30179,0.29662 -0.33798,0.40465 -0.346349,0.56816 -0.10387,2.03709 0.14502,0.87846 0.325526,2.07651 0.401526,2.66237 l 0.138493,1.06505 2.300118,1.33583 c 1.265085,0.73464 2.742525,1.6961 3.283003,2.13631 0.540489,0.44021 1.063737,0.8037 1.163237,0.8077 0.30204,0.0121 -0.0688,-2.68479 -0.489376,-3.55896 -0.22039,-0.45804 -1.042759,-1.38373 -1.875338,-2.11098 -2.638582,-2.30476 -4.436656,-4.113 -4.443656,-4.46794 -0.0029,-0.14676 -0.01838,-0.21653 -0.07235,-0.20309 z m 0.480074,7.69979 c -0.234899,0 -0.09919,1.46064 0.182418,1.96319 0.16698,0.298 1.790882,1.61027 4.611605,3.72638 l 2.24069,1.68104 0.06305,-0.72606 c 0.10554,-1.2184 -0.447083,-2.01024 -2.471167,-3.53931 -2.379383,-1.7975 -4.327931,-3.10524 -4.626591,-3.10524 z m 29.754775,1.22473 c -0.83184,0.003 -1.63504,0.18984 -1.63504,0.37982 0,0.0722 0.80192,0.41577 1.78232,0.76326 2.31649,0.82105 2.41781,0.82578 1.88722,0.0806 -0.61961,-0.87016 -1.21231,-1.2267 -2.0345,-1.2237 z m -5.15576,0.96118 c -0.64789,0.009 -1.3125,0.12762 -1.47691,0.26407 -0.43834,0.36379 -0.36499,0.96199 0.15916,1.29553 0.37384,0.23789 4.85482,1.74349 8.0977,2.72076 1.07912,0.3252 1.20394,0.29998 1.3472,-0.27078 0.25149,-1.00203 -0.38993,-1.47454 -3.80028,-2.80087 -2.61303,-1.01624 -3.34934,-1.22201 -4.32687,-1.20871 z m -24.097237,2.13992 c -0.10221,0.10221 0.88549,6.69754 1.02371,6.83576 0.04863,0.0486 1.491341,1.13212 3.206006,2.40812 1.714674,1.276 3.186402,2.32027 3.270602,2.32027 0.272978,0 0.151585,-1.10026 -0.208773,-1.89239 -0.26491,-0.58231 -1.001136,-1.25787 -2.99775,-2.75022 -2.670091,-1.9957 -3.469197,-2.87046 -3.026689,-3.31297 0.16886,-0.16885 0.988113,0.2787 3.138827,1.71462 1.600745,1.06873 2.980246,1.90003 3.065446,1.84743 0.08519,-0.0526 0.01448,-0.50775 -0.157097,-1.0113 -0.268248,-0.78727 -0.616063,-1.15217 -2.482019,-2.60553 -3.742328,-2.91486 -4.738363,-3.64769 -4.832263,-3.55379 z m 23.289017,1.18649 c -0.2601,-0.009 -0.35657,0.14737 -0.35657,0.57671 0,1.02204 0.54441,1.3923 3.46336,2.35696 1.76588,0.58361 2.96862,0.87467 3.36103,0.81287 0.67022,-0.10552 1.57335,-0.68633 1.56735,-1.0082 -0.004,-0.20516 -7.37105,-2.71594 -8.03517,-2.73834 z m 0.0264,3.45096 c -0.15538,0 -0.19086,0.25391 -0.10646,0.76429 0.0694,0.42017 0.12768,1.07231 0.12868,1.44952 v 5.2e-4 c 0.003,0.78502 -0.11937,0.78495 2.49752,-0.004 0.86835,-0.26187 1.57923,-0.53327 1.57923,-0.60307 0,-0.14236 -3.73581,-1.60713 -4.09897,-1.60713 z m -21.726327,4.28087 c -0.163138,-0.001 -0.219995,0.16583 -0.153995,0.45579 0.05741,0.2521 0.281324,1.27389 0.497644,2.27066 0.23572,1.08619 0.549202,1.96824 0.782381,2.20142 0.21398,0.21399 1.481219,1.06982 2.816366,1.90169 l 2.427758,1.51257 0.06098,-1.23352 c 0.04506,-0.91044 -0.03708,-1.4021 -0.313159,-1.87999 -0.406618,-0.70386 -5.696524,-5.22462 -6.117973,-5.22862 z m 1.801441,7.54321 c -0.578936,-0.0755 0.08313,0.54926 2.327506,2.41277 1.344536,1.11637 2.507105,2.03736 2.583305,2.04536 0.267299,0.0298 -0.229419,-1.25571 -0.747758,-1.93529 -0.643958,-0.84427 -2.058334,-1.83725 -3.182751,-2.23397 -0.456114,-0.16093 -0.787322,-0.26369 -0.980302,-0.28887 z m 23.382556,2.15956 c -0.15143,-0.001 -0.26936,0.0284 -0.38913,0.078 -0.43912,0.18189 -1.00717,0.92171 -1.00717,1.31206 0,0.0416 0.57303,0.27485 1.27331,0.5178 0.70028,0.24296 2.8319,1.2952 4.73666,2.33836 1.90476,1.04317 3.60069,1.88219 3.76876,1.86449 0.44162,-0.0465 0.9699,-1.66979 0.6904,-2.12132 -0.29047,-0.46925 -2.12797,-1.3776 -5.84357,-2.88871 -2.01834,-0.82086 -2.77498,-1.0975 -3.22926,-1.10071 z m -23.538102,0.72554 c -0.05674,0.0464 -0.03227,0.16475 0.03307,0.38912 0.502758,1.7264 0.990009,2.28371 3.570841,4.08657 1.400566,0.97835 2.574543,1.6983 2.609143,1.5999 0.14176,-0.40345 -0.919306,-2.02666 -2.181262,-3.33778 -1.493315,-1.55148 -2.725624,-2.47967 -3.577043,-2.69337 -0.259913,-0.0652 -0.398012,-0.0908 -0.454752,-0.0444 z m 22.549532,2.17919 v 0.83147 c 0,1.80865 0.72621,2.6212 3.13572,3.50832 0.90366,0.3327 1.3311,0.63208 1.73116,1.21129 0.55342,0.80126 0.87897,0.91389 1.71824,0.5948 0.54115,-0.20575 1.97094,-1.3886 1.97094,-1.63039 0,-0.0816 -1.92482,-1.1312 -4.27777,-2.33216 z m -21.796607,2.39469 c 6.2e-4,0.0947 0.09065,0.49305 0.200505,0.88521 0.20463,0.73043 0.463986,0.90916 4.483964,3.09749 0.5042,0.27447 0.950688,0.47333 0.992188,0.44183 0.207028,-0.15727 -1.386374,-1.8197 -2.489771,-2.59777 -1.636324,-1.15385 -3.187886,-2.04359 -3.186886,-1.82676 z m 22.515937,2.71869 c -0.14628,0 -0.13879,2.54968 0.008,2.69648 0.0646,0.0637 1.07787,-0.20557 2.25258,-0.59893 1.17512,-0.39351 2.10202,-0.75 2.05982,-0.7922 -0.0807,-0.0807 -4.13282,-1.30508 -4.32015,-1.30535 z m -22.428087,0.66146 c -0.02632,0.0283 0.08274,0.37265 0.242363,0.76481 0.23558,0.57876 0.874022,1.10334 3.391524,2.78795 1.705804,1.14146 3.180286,2.08124 3.276286,2.08824 0.096,0.007 0.118646,-0.13231 0.05064,-0.30954 -0.06805,-0.17723 -0.123507,-0.50338 -0.123507,-0.72502 0,-0.61551 -1.901214,-2.49018 -3.259749,-3.21428 -1.121167,-0.59755 -3.46735,-1.51065 -3.57756,-1.39216 z m 0.476974,3.27525 c -0.286809,0.45092 -0.158752,1.50888 0.244946,2.0221 0.221989,0.28222 0.75035,0.6516 1.174089,0.82114 0.423738,0.16955 1.777575,0.91349 3.008602,1.65313 1.231015,0.73964 2.308487,1.34497 2.394685,1.34514 0.20718,4.1e-4 -0.03306,-1.00746 -0.368969,-1.54771 -0.425199,-0.68383 -6.274163,-4.57553 -6.453353,-4.2938 z m 0.180867,4.00958 c -0.456678,-0.004 0.241869,0.59586 3.429248,2.94297 1.904766,1.40262 3.5318,2.55133 3.6158,2.55333 0.19904,0.004 0.191835,-0.15489 -0.04754,-1.01647 -0.156719,-0.5641 -0.444989,-0.86232 -1.374076,-1.4211 -1.787504,-1.07505 -5.4318,-3.05773 -5.62343,-3.05873 z"
         sodipodi:nodetypes="cssscscccssccsccscssssscssssccscsscssscsssssssssssccsssccssccccscccsssssccccsscssccccssscscscssscsssscscsccccccsscsccscsscccssscscsscccsssssscccsccsccccssssscccsscscscsssssssscscssssssssssscssss" /><path
         d="m 112.08637,121.39071 c -0.86059,-1.5e-4 -1.94233,0.0936 -3.71606,0.28163 -5.4814,0.58107 -10.228026,1.56373 -16.755054,3.46852 -3.375871,0.98519 -4.483214,1.43782 -4.810043,1.96526 -0.15405,0.24861 -0.0055,1.66436 0.545703,5.19451 1.125507,7.20779 1.513035,10.21169 1.768885,13.71493 0.12683,1.73669 0.36485,4.21192 0.52865,5.50044 0.276731,2.17698 2.960428,19.24804 3.258715,20.72845 0.152461,0.75649 0.184793,0.76225 2.055689,0.37207 0.763627,-0.15925 2.763497,-0.48697 4.444173,-0.72812 4.184322,-0.6004 9.248662,-1.67565 13.088612,-2.77864 0.93075,-0.26735 1.03187,-0.34531 0.7767,-0.60048 -0.16128,-0.16128 -0.40897,-0.6131 -0.55035,-1.00408 -0.14138,-0.39098 -0.31986,-0.71055 -0.39636,-0.71055 -0.0765,0 -0.35197,-0.52724 -0.61185,-1.1715 -0.25988,-0.64426 -0.58501,-1.2866 -0.72295,-1.4273 -0.13795,-0.14072 -0.30893,-0.43855 -0.37983,-0.66198 -0.0709,-0.22343 -0.24387,-0.40618 -0.38447,-0.40618 -0.14061,0 -1.36996,0.32647 -2.73162,0.72554 -3.0983,0.90809 -3.87485,0.88741 -4.35581,-0.11472 -0.31927,-0.66522 -1.79831,-11.00054 -1.79731,-12.55686 7.7e-4,-0.92829 0.54221,-1.45968 2.03864,-2.00091 0.72777,-0.26322 1.82701,-0.66762 2.44326,-0.89865 3.58371,-1.34351 9.0633,0.80475 10.73475,4.20853 1.05984,2.15825 0.63418,5.07532 -1.06608,7.30446 -0.36335,0.47637 -0.50126,0.91252 -0.50126,1.58698 0,0.51168 0.0921,0.9307 0.20412,0.9307 0.11202,0 0.2036,0.27468 0.2036,0.61081 0,0.33614 0.0938,0.61133 0.20878,0.61133 0.3905,0 1.96897,1.75747 2.3461,2.61225 0.20647,0.46797 0.4978,0.85111 0.6475,0.85111 0.52404,0 2.66367,-1.2108 3.91604,-2.21589 2.46018,-1.97443 4.18075,-4.63968 5.23948,-8.11526 0.4787,-1.57159 0.54752,-2.15091 0.56172,-4.7439 0.0185,-3.3672 -0.1924,-4.24966 -1.49913,-6.27145 -0.9342,-1.44539 -1.98199,-2.48924 -4.2907,-4.27571 -2.5169,-1.94753 -2.85202,-2.28932 -2.85202,-2.9068 0,-0.29878 0.4981,-1.59041 1.10639,-2.87011 1.34288,-2.82512 1.61265,-3.83041 1.50895,-5.62291 -0.11665,-2.01637 -1.01966,-3.81697 -2.7745,-5.53403 -1.58399,-1.54986 -3.02642,-2.34218 -5.04051,-2.76882 -0.89053,-0.18844 -1.52998,-0.28252 -2.39055,-0.28267 z m -4.32068,5.42912 c 3.41421,-0.0259 4.582,1.19477 5.30614,5.54643 0.54254,3.26046 0.30796,4.74606 -0.93792,5.93452 -0.85237,0.8131 -2.21444,1.39026 -7.43057,3.14865 -1.7927,0.60434 -3.40939,1.09971 -3.59306,1.10071 -0.18367,0.001 -0.53504,-0.16064 -0.78083,-0.35967 -0.369656,-0.29934 -0.532122,-0.87145 -0.938442,-3.31039 -0.811078,-4.86853 -1.340593,-9.00511 -1.216463,-9.49968 0.13023,-0.51886 0.663607,-0.86313 1.736845,-1.12086 4.47959,-1.07577 6.40479,-1.42871 7.8543,-1.43971 z"
         style="fill:#01095e;fill-opacity:1;stroke:none;stroke-width:0.3;stroke-dasharray:none"
         id="path1-8" /><path
         d="m 66.400689,83.92666 -6.004284,22.70042 -0.09405,0.72657 c -0.07099,0.54892 -0.208792,1.0988 -0.306442,1.22215 -0.09765,0.12335 -0.345065,1.14144 -0.549837,2.26188 -0.204774,1.12045 -0.433649,2.08289 -0.507979,2.13889 -0.07433,0.056 -0.298353,1.03844 -0.498161,2.18333 -0.199806,1.14488 -0.441358,2.03355 -0.536918,1.97455 -0.09556,-0.0591 -0.173633,0.12335 -0.173633,0.40566 0,0.2823 -0.145885,0.63171 -0.324011,0.77618 -0.01354,0.011 -0.115607,0.11008 -0.134359,0.12609 l -4.147034,15.67967 c 0.441873,-0.29437 0.734634,-0.39982 0.734839,-0.20826 4.79e-4,0.44776 -0.700843,3.62654 -0.819071,3.71244 -0.07707,0.056 -0.258362,0.7346 -0.40256,1.5074 -0.208772,1.11888 -0.384892,1.51304 -0.865063,1.93528 -0.152578,0.13417 -0.412116,0.38217 -0.642855,0.59531 l -1.031461,3.89847 c 0.07773,-0.0634 0.346344,-0.32047 0.430981,-0.38705 0.292943,-0.23042 0.609703,-0.4191 0.703833,-0.4191 0.195766,0 -0.01111,1.2717 -0.232027,1.42627 -0.08007,0.056 -0.308447,1.01844 -0.507463,2.13889 -0.199016,1.12045 -0.422637,2.08288 -0.497127,2.13888 -0.07449,0.056 -0.305876,1.04159 -0.513664,2.19005 -0.207788,1.14845 -0.441021,2.08825 -0.518831,2.08825 -0.07781,0 -0.306842,0.96241 -0.508496,2.13888 -0.201654,1.17648 -0.426019,2.13889 -0.498678,2.13889 -0.07266,0 -0.2998,1.00613 -0.504879,2.23552 -0.205077,1.22938 -0.437327,2.19544 -0.516247,2.14664 -0.07892,-0.0488 -0.308068,0.87044 -0.509013,2.04277 -0.200943,1.17233 -0.429519,2.13165 -0.507979,2.13165 -0.07846,0 -0.309849,0.98505 -0.514181,2.18954 -0.204333,1.20446 -0.439389,2.23584 -0.522449,2.29184 -0.08306,0.056 -0.251185,0.64389 -0.37362,1.30639 -0.122435,0.66248 -0.263026,1.24487 -0.312126,1.29397 -0.0491,0.0491 -0.416563,-0.16068 -0.817004,-0.46612 -0.275761,-0.21033 -0.493448,-0.32356 -0.744658,-0.40669 l -0.961698,3.63544 88.177046,23.3221 c -0.1039,-0.0538 -0.27943,-0.37366 -0.4191,-0.79685 -0.15184,-0.46008 -0.39588,-0.88287 -0.54208,-0.93897 -0.1462,-0.0561 -0.26562,-0.19272 -0.26562,-0.30385 0,-0.24777 -0.64268,-1.65091 -0.82062,-1.79162 -0.0708,-0.056 -0.2586,-0.39964 -0.41703,-0.76378 -0.15844,-0.36415 -0.34313,-0.66198 -0.41083,-0.66198 -0.0677,0 -0.29488,-0.38992 -0.50488,-0.86609 -0.21001,-0.47619 -0.45203,-0.91612 -0.53743,-0.97772 -0.0854,-0.0616 -0.21484,-0.4106 -0.28784,-0.77567 -0.0603,-0.30129 -0.0694,-0.47078 -0.0145,-0.58187 l -0.73225,-1.33842 c -0.24082,0.0571 -0.40379,-0.0741 -0.57568,-0.40049 -0.13276,-0.2521 -0.29919,-0.50418 -0.36949,-0.56018 -0.0704,-0.056 -0.29953,-0.49171 -0.50953,-0.9679 -0.21,-0.47619 -0.45948,-0.86558 -0.55448,-0.86558 -0.095,0 -0.17312,-0.0913 -0.17312,-0.20257 0,-0.34788 -0.69939,-1.83503 -0.863,-1.83503 -0.0857,0 -0.15554,-0.16965 -0.15554,-0.37724 0,-0.0611 0.11287,-0.20485 0.18707,-0.32091 l -4.62711,-8.54109 c -0.31605,0.0365 -0.64195,-0.30742 -0.95033,-1.05523 -0.20637,-0.50044 -0.449,-0.91002 -0.5395,-0.91002 -0.0905,0 -0.32525,-0.45176 -0.52142,-1.00408 -0.19616,-0.55232 -0.42488,-0.96193 -0.50798,-0.91053 -0.0831,0.0514 -0.26163,-0.27619 -0.39687,-0.72761 -0.13525,-0.45141 -0.31938,-0.82062 -0.40928,-0.82062 -0.0899,0 -1.6568,0.44953 -3.48196,0.99942 -4.45336,1.34172 -6.29272,1.76168 -10.817424,2.46807 -2.521506,0.39364 -4.564739,0.84366 -5.975346,1.31568 -1.179036,0.39453 -2.205264,0.71077 -2.279964,0.70177 -0.698997,-0.0797 -1.943314,-0.84786 -4.443657,-2.74196 -1.622005,-1.22871 -3.378806,-2.52774 -3.904154,-2.88716 -2.692951,-1.84237 -2.779058,-2.02957 -3.084566,-6.68073 -0.391589,-5.9617 -1.50075,-13.98053 -3.360002,-24.29722 -0.525068,-2.91349 -0.929249,-5.47954 -1.957503,-12.42818 -0.336192,-2.27189 -0.837601,-5.09011 -1.114661,-6.26267 -0.549842,-2.32703 -0.615856,-3.17532 -0.293005,-3.77858 0.322704,-0.60298 1.86464,-1.28443 4.78007,-2.11253 1.456573,-0.41374 3.129891,-0.89061 3.718119,-1.05937 0.588239,-0.16876 1.069186,-0.37757 1.069186,-0.46457 0,-0.0869 -0.179227,-0.36532 -0.398426,-0.61805 -0.21919,-0.25274 -0.508791,-0.79385 -0.643371,-1.20251 -0.13458,-0.40867 -0.362656,-0.83467 -0.506946,-0.94671 -0.1443,-0.11205 -0.323092,-0.45565 -0.397392,-0.76378 l -0.134875,-0.56018 0.10697,0.002 -4.776453,-8.68422 c -0.179345,0.0496 -0.252385,-0.0496 -0.377755,-0.37931 -0.107318,-0.28228 -0.28929,-0.51314 -0.404109,-0.51314 -0.11482,0 -0.208773,-0.10116 -0.208773,-0.22428 0,-0.2695 -0.637277,-1.669657 -0.825273,-1.813327 -0.07331,-0.05602 -0.302209,-0.468562 -0.509013,-0.91674 -0.206802,-0.448179 -0.430527,-0.86074 -0.497127,-0.91674 -0.0666,-0.05603 -0.268972,-0.414027 -0.449585,-0.795817 l -0.328145,-0.694015 0.104903,-0.09922 -2.525427,-4.590935 c -0.0054,0.0026 -0.07321,0.06662 -0.07597,0.06666 -0.06312,0.0011 -0.240938,-0.318919 -0.394807,-0.711068 -0.153871,-0.392158 -0.340327,-0.713134 -0.414445,-0.713134 -0.07412,0 -0.306763,-0.389392 -0.516765,-0.865581 C 68.40347,87.79956 68.178711,87.363849 68.113762,87.307849 67.951807,87.168162 67.493577,86.134395 67.379957,85.70743 l -0.225309,-0.410311 c -0.02085,-0.0075 -0.03628,-0.02635 -0.05943,-0.02635 -0.114818,0 -0.297364,-0.232948 -0.40566,-0.517798 -0.06424,-0.168951 -0.07986,-0.294248 -0.06305,-0.415479 z"
         style="fill:#ffffff;fill-opacity:1;stroke:none;stroke-width:0.3;stroke-dasharray:none"
         id="path1-1" /><path
         d="m 71.700935,81.617463 c 0.0951,0.166863 0.158118,0.210239 0.264067,0.467155 0.207924,0.504199 0.430651,0.91674 0.49506,0.91674 0.06441,0 0.295233,0.458841 0.51263,1.019059 0.217398,0.560229 0.452017,1.018543 0.521415,1.018543 0.06939,0 0.234961,0.239277 0.368453,0.532267 0.12027,0.263962 0.15348,0.597503 0.120407,0.86248 l 2.503205,4.681885 0.20257,-0.250631 0.36019,0.702799 c 0.19816,0.386539 0.42086,0.748602 0.49506,0.804602 0.18872,0.14241 0.82682,1.541828 0.82682,1.813326 0,0.12312 0.0843,0.224276 0.18707,0.224276 0.10278,0 0.34436,0.412543 0.53692,0.91674 0.19255,0.5042 0.41471,0.91674 0.49351,0.91674 0.0788,0 0.24696,0.227397 0.37362,0.505395 0.12301,0.269979 0.0859,0.471974 -0.0739,0.728638 l 7.91011,14.793933 c 0.26339,-0.0533 1.4631,-0.39336 3.05201,-0.87437 2.61843,-0.79267 3.58409,-0.98214 6.16086,-1.20768 5.377488,-0.47066 6.371578,-0.39474 9.778738,0.74466 4.63587,1.5503 9.272,5.20781 13.78572,10.87582 3.33089,4.18272 4.09764,5.8437 4.08864,8.862 -0.006,2.10727 -0.48514,3.73523 -1.74977,5.94795 l -0.89607,1.56838 1.81075,1.26349 c 3.20721,2.23746 5.43639,5.04355 6.41201,8.07134 0.53268,1.65315 0.59581,5.72685 0.12402,8.0052 -1.26253,6.09683 -4.76907,10.72664 -9.69036,12.79405 -0.68996,0.28985 -1.28264,0.54404 -1.31724,0.56534 -0.0942,0.0581 0.56462,1.57995 0.73846,1.70584 0.24269,0.17576 0.77304,1.49133 0.85111,2.02572 l 4.89893,8.80514 c 0.11519,-0.0118 0.19533,0.0684 0.19533,0.27854 0,0.0487 0.0179,0.0841 0.0295,0.12506 l 0.0708,0.12764 c 0.0235,0.0214 0.0442,0.0532 0.0723,0.0532 0.095,0 0.34459,0.38939 0.55449,0.86558 0.20989,0.47619 0.4913,0.9354 0.6258,1.0201 0.1345,0.0847 0.30509,0.4283 0.37879,0.76377 0.0737,0.33547 0.20821,0.60979 0.29921,0.60979 0.11564,0 0.61224,1.03829 0.73794,1.48363 l 0.99425,1.78645 c 0.0392,0.0202 0.062,0.009 0.10801,0.0377 0.22348,0.13958 0.40617,0.3322 0.40617,0.4284 0,0.21466 0.64665,1.62355 0.80977,1.76424 0.065,0.056 0.29023,0.49171 0.50023,0.9679 0.21001,0.47617 0.43684,0.86619 0.50384,0.86661 0.067,4.2e-4 0.29917,0.43558 0.51625,0.96738 0.0767,0.18788 0.16354,0.35641 0.24805,0.52503 l 0.20722,0.37259 c 0.067,0.10711 0.14146,0.23758 0.18449,0.27337 0.12009,0.0999 0.30083,0.46434 0.4346,0.83922 l 0.45423,0.81701 c 0.0871,-0.0252 0.31705,0.36414 0.52607,0.90279 0.0309,0.0797 0.0593,0.13015 0.0904,0.20464 l 0.49558,0.8909 c 0.0756,0.0825 0.18798,0.2851 0.32194,0.57826 l 0.41031,0.73742 6.78357,-25.64908 c 0.0253,-0.72805 0.38627,-2.64687 0.54053,-2.64687 0.0857,0 0.32358,-1.00872 0.52917,-2.24121 0.2056,-1.23248 0.43515,-2.24069 0.51005,-2.24069 0.0749,0 0.25625,-0.70015 0.40256,-1.55546 0.20894,-1.22148 0.3896,-1.68142 0.84336,-2.1456 0.0335,-0.0343 0.029,-0.0486 0.061,-0.0832 l 5.22087,-19.73885 c -0.053,0.0308 -0.13037,0.0942 -0.17105,0.11007 -0.25209,0.0984 -0.45837,0.31854 -0.45837,0.48938 0,0.17084 -0.10339,0.31057 -0.22944,0.31057 -0.1506,0 -0.18291,-0.22715 -0.0941,-0.66197 0.0744,-0.36415 0.19055,-1.05137 0.25735,-1.52756 0.0668,-0.47619 0.18588,-0.86609 0.26458,-0.86609 0.0787,0 0.30788,-0.96242 0.50953,-2.13889 0.20165,-1.17646 0.44549,-2.13889 0.54209,-2.13889 0.0966,0 0.1757,-0.13599 0.1757,-0.30179 0,-0.52441 0.64543,-1.93862 0.8878,-1.94562 0.10425,-0.003 0.44627,-0.29199 0.76274,-0.58136 l 3.28507,-12.41991 c -0.74766,0.66446 -1.17704,0.98805 -1.39061,0.98805 -0.27111,0 -0.31053,-0.12861 -0.2036,-0.66197 0.073,-0.36414 0.18788,-1.0061 0.25528,-1.42627 0.0674,-0.42017 0.18411,-0.76378 0.25941,-0.76378 0.0753,0 0.31012,-1.00286 0.52193,-2.2288 0.21182,-1.22594 0.44642,-2.19149 0.52142,-2.14509 0.075,0.0464 0.30394,-0.92141 0.50901,-2.15077 0.20508,-1.22939 0.4326,-2.23501 0.5054,-2.23501 0.0728,0 0.24802,-0.64601 0.38912,-1.43557 0.20488,-1.14644 0.40652,-1.61321 1.00046,-2.31562 0.40905,-0.48376 1.04803,-1.04697 1.42007,-1.25212 0.14448,-0.0797 0.28792,-0.19299 0.42581,-0.30386 l 0.15038,-0.56896 z"
         style="fill:#ffffff;fill-opacity:1;stroke:none;stroke-width:0.3;stroke-dasharray:none"
         id="path1-3" /></g></g></svg>
