<?xml version="1.0" encoding="UTF-8" standalone="no"?>
<!-- Created with Inkscape (http://www.inkscape.org/) -->

<svg
   width="210mm"
   height="297mm"
   viewBox="0 0 210 297"
   version="1.1"
   id="svg1"
   xml:space="preserve"
   inkscape:version="1.3.2 (091e20e, 2023-11-25)"
   sodipodi:docname="gt.svg"
   xmlns:inkscape="http://www.inkscape.org/namespaces/inkscape"
   xmlns:sodipodi="http://sodipodi.sourceforge.net/DTD/sodipodi-0.dtd"
   xmlns="http://www.w3.org/2000/svg"
   xmlns:svg="http://www.w3.org/2000/svg"><sodipodi:namedview
     id="namedview1"
     pagecolor="#505050"
     bordercolor="#eeeeee"
     borderopacity="1"
     inkscape:showpageshadow="0"
     inkscape:pageopacity="0"
     inkscape:pagecheckerboard="0"
     inkscape:deskcolor="#505050"
     inkscape:document-units="mm"
     inkscape:zoom="0.60313823"
     inkscape:cx="-186.5244"
     inkscape:cy="322.47997"
     inkscape:window-width="2544"
     inkscape:window-height="1362"
     inkscape:window-x="10"
     inkscape:window-y="40"
     inkscape:window-maximized="0"
     inkscape:current-layer="layer1" /><defs
     id="defs1" /><g
     inkscape:label="Layer 1"
     inkscape:groupmode="layer"
     id="layer1"><path
       style="fill:none;stroke:#ff0000"
       d="m 81.645329,84.990149 c -0.09812,-0.0981 -0.17839,-3.19464 -0.17839,-6.88117 v -6.70277 h 3.571875 3.571875 v -14.2875 -14.2875 H 86.628905 84.64712 l -0.06874,12.50156 -0.06874,12.50156 -7.209895,0.0704 -7.209896,0.0704 v -1.31684 -1.31684 l -1.918229,0.92138 c -3.848905,1.84872 -10.958868,3.82577 -16.99948,4.72699 -10.476241,1.56298 -18.346581,0.92624 -26.590625,-2.15129 -5.912677,-2.20722 -10.19512,-4.94779 -14.566733,-9.32206 -3.1339889,-3.1359 -4.7837219,-5.35074 -6.4267039,-8.62813 -7.385174,-14.73182 -1.226049,-32.36368 15.0403119,-43.0562196 5.668145,-3.7259 12.753998,-6.24495 19.85447,-7.05834998 8.807277,-1.00892 19.23551,0.82490998 27.317074,4.80377998 1.559088,0.7676 2.920024,1.43557 3.0243,1.48437 0.104276,0.0488 0.223339,-1.25931 0.264583,-2.90693 l 0.07499,-2.99566 h 6.746875 6.746875 l 0.06893,11.5755196 0.06893,11.57552 h -6.729058 -6.729057 l -2.203411,-1.66153 c -6.816788,-5.14036 -16.39227,-7.86322 -23.899245,-6.79592 -12.807017,1.82084 -21.534986,10.67348 -21.64205,21.9512 -0.02987,3.14609 0.420932,5.236 1.681932,7.79745 3.317929,6.73967 11.730994,11.49692 22.242943,12.57749 8.879226,0.91273 18.214085,-2.4789 22.636559,-8.22453 1.208286,-1.56979 2.885577,-4.8996 3.155009,-6.26343 l 0.169878,-0.85989 H 69.3777 67.276485 l -0.481704,2.57968 c -0.264937,1.41883 -0.582367,2.84991 -0.705399,3.18018 l -0.223696,0.60048 -5.759269,-0.0713 -5.75927,-0.0713 v -10.71566 -10.71563 h 40.745834 40.745829 v 10.71563 10.71562 l -5.758,0.0713 -5.758,0.0713 -0.24735,-0.60049 c -0.13604,-0.33026 -0.44626,-1.76134 -0.68938,-3.18017 l -0.44204,-2.57968 h -7.90626 -7.90626 v 14.28003 14.28003 l 3.63802,0.0736 3.63802,0.0736 v 6.74687 6.74688 l -16.291919,0.0681 c -8.960557,0.0375 -16.372198,-0.0121 -16.470312,-0.11024 z"
       id="path1"
       sodipodi:nodetypes="cscccccccccccccsssssssssscccccccssssssscccsscccccccccccsscccccccccccc" /></g></svg>
